<mxfile host="65bd71144e">
    <diagram id="NFCalPClr8U_P4S2jCpP" name="Page-1">
        <mxGraphModel dx="805" dy="1575" grid="1" gridSize="10" guides="1" tooltips="1" connect="1" arrows="1" fold="1" page="1" pageScale="1" pageWidth="850" pageHeight="1100" math="0" shadow="0">
            <root>
                <mxCell id="0"/>
                <mxCell id="1" parent="0"/>
                <UserObject label="" mermaidData="{&#xa;  &quot;data&quot;: &quot;flowchart TD\n    A[Usuario] --&gt;|Git Push| B[GitHub]\n    B --&gt;|Trigger| C[GitHub Actions]\n    C --&gt; D[\&quot;Windows Runner (Cloud)\&quot;]\n    \n    subgraph \&quot;Entorno Cloud Simulado\&quot;\n        D --&gt; E[\&quot;Paso 1: ConfiguraciÃ³n\&quot;]\n        E --&gt; F[\&quot;Windows Server (GitHub-hosted)\&quot;]\n        F --&gt; G[\&quot;Python 3.9.2 (Cloud)\&quot;]\n        G --&gt; H[\&quot;Recursos asignados: 2 CPU / 7 GB RAM\&quot;]\n        H --&gt; I[\&quot;Almacenamiento efÃ­mero (disco SSD)\&quot;]\n    end\n\n    I --&gt; J[\&quot;EjecuciÃ³n Pipeline\&quot;]\n    J --&gt; K[\&quot;ETL en la Nube\&quot;]\n    \n    subgraph \&quot;Procesamiento Cloud\&quot;\n        K --&gt; L[\&quot;script.py\\n(ExtracciÃ³n API)\&quot;]\n        L --&gt; M[\&quot;cleanData.py\\n(Limpieza)\&quot;]\n        M --&gt; N[\&quot;Transformation.py\\n(Enriquecimiento)\&quot;]\n    end\n\n    N --&gt; O[\&quot;Resultados en GitHub\\n(BDs SQLite, reportes)\&quot;]\n    O --&gt; P[(\&quot;ðŸ“‚ Repositorio\&quot;)]\n    \n    style A fill:#FFD700,stroke:#333\n    style B fill:#24292E,stroke:#333,color:white\n    style D fill:#0078D7,stroke:#333,color:white\n    style K fill:#00AA55,stroke:#333\n    style P fill:#6CC644,stroke:#333&quot;&#xa;}" id="2">
                    <mxCell style="shape=image;noLabel=1;verticalAlign=top;imageAspect=1;image=data:image/svg+xml,PHN2ZyBhcmlhLXJvbGVkZXNjcmlwdGlvbj0iZmxvd2NoYXJ0LXYyIiByb2xlPSJncmFwaGljcy1kb2N1bWVudCBkb2N1bWVudCIgdmlld0JveD0iMCAwIDQyMC4wNzgxMjUgMTkxOC4wMzg0NTIxNDg0Mzc1IiBzdHlsZT0ibWF4LXdpZHRoOiA0MjAuMDc4MTI1cHg7IiBjbGFzcz0iZmxvd2NoYXJ0IiB4bWxucz0iaHR0cDovL3d3dy53My5vcmcvMjAwMC9zdmciIHdpZHRoPSIxMDAlIiBpZD0iZ2VNZXJtYWlkT3V0cHV0LTE3NDM5NTIzNzkxNTUiPjxzdHlsZT4jZ2VNZXJtYWlkT3V0cHV0LTE3NDM5NTIzNzkxNTV7Zm9udC1mYW1pbHk6InRyZWJ1Y2hldCBtcyIsdmVyZGFuYSxhcmlhbCxzYW5zLXNlcmlmO2ZvbnQtc2l6ZToxNnB4O2ZpbGw6IzAwMDAwMDt9I2dlTWVybWFpZE91dHB1dC0xNzQzOTUyMzc5MTU1IC5lcnJvci1pY29ue2ZpbGw6IzU1MjIyMjt9I2dlTWVybWFpZE91dHB1dC0xNzQzOTUyMzc5MTU1IC5lcnJvci10ZXh0e2ZpbGw6IzU1MjIyMjtzdHJva2U6IzU1MjIyMjt9I2dlTWVybWFpZE91dHB1dC0xNzQzOTUyMzc5MTU1IC5lZGdlLXRoaWNrbmVzcy1ub3JtYWx7c3Ryb2tlLXdpZHRoOjFweDt9I2dlTWVybWFpZE91dHB1dC0xNzQzOTUyMzc5MTU1IC5lZGdlLXRoaWNrbmVzcy10aGlja3tzdHJva2Utd2lkdGg6My41cHg7fSNnZU1lcm1haWRPdXRwdXQtMTc0Mzk1MjM3OTE1NSAuZWRnZS1wYXR0ZXJuLXNvbGlke3N0cm9rZS1kYXNoYXJyYXk6MDt9I2dlTWVybWFpZE91dHB1dC0xNzQzOTUyMzc5MTU1IC5lZGdlLXRoaWNrbmVzcy1pbnZpc2libGV7c3Ryb2tlLXdpZHRoOjA7ZmlsbDpub25lO30jZ2VNZXJtYWlkT3V0cHV0LTE3NDM5NTIzNzkxNTUgLmVkZ2UtcGF0dGVybi1kYXNoZWR7c3Ryb2tlLWRhc2hhcnJheTozO30jZ2VNZXJtYWlkT3V0cHV0LTE3NDM5NTIzNzkxNTUgLmVkZ2UtcGF0dGVybi1kb3R0ZWR7c3Ryb2tlLWRhc2hhcnJheToyO30jZ2VNZXJtYWlkT3V0cHV0LTE3NDM5NTIzNzkxNTUgLm1hcmtlcntmaWxsOiM2NjY7c3Ryb2tlOiM2NjY7fSNnZU1lcm1haWRPdXRwdXQtMTc0Mzk1MjM3OTE1NSAubWFya2VyLmNyb3Nze3N0cm9rZTojNjY2O30jZ2VNZXJtYWlkT3V0cHV0LTE3NDM5NTIzNzkxNTUgc3Zne2ZvbnQtZmFtaWx5OiJ0cmVidWNoZXQgbXMiLHZlcmRhbmEsYXJpYWwsc2Fucy1zZXJpZjtmb250LXNpemU6MTZweDt9I2dlTWVybWFpZE91dHB1dC0xNzQzOTUyMzc5MTU1IHB7bWFyZ2luOjA7fSNnZU1lcm1haWRPdXRwdXQtMTc0Mzk1MjM3OTE1NSAubGFiZWx7Zm9udC1mYW1pbHk6InRyZWJ1Y2hldCBtcyIsdmVyZGFuYSxhcmlhbCxzYW5zLXNlcmlmO2NvbG9yOiMwMDAwMDA7fSNnZU1lcm1haWRPdXRwdXQtMTc0Mzk1MjM3OTE1NSAuY2x1c3Rlci1sYWJlbCB0ZXh0e2ZpbGw6IzMzMzt9I2dlTWVybWFpZE91dHB1dC0xNzQzOTUyMzc5MTU1IC5jbHVzdGVyLWxhYmVsIHNwYW57Y29sb3I6IzMzMzt9I2dlTWVybWFpZE91dHB1dC0xNzQzOTUyMzc5MTU1IC5jbHVzdGVyLWxhYmVsIHNwYW4gcHtiYWNrZ3JvdW5kLWNvbG9yOnRyYW5zcGFyZW50O30jZ2VNZXJtYWlkT3V0cHV0LTE3NDM5NTIzNzkxNTUgLmxhYmVsIHRleHQsI2dlTWVybWFpZE91dHB1dC0xNzQzOTUyMzc5MTU1IHNwYW57ZmlsbDojMDAwMDAwO2NvbG9yOiMwMDAwMDA7fSNnZU1lcm1haWRPdXRwdXQtMTc0Mzk1MjM3OTE1NSAubm9kZSByZWN0LCNnZU1lcm1haWRPdXRwdXQtMTc0Mzk1MjM3OTE1NSAubm9kZSBjaXJjbGUsI2dlTWVybWFpZE91dHB1dC0xNzQzOTUyMzc5MTU1IC5ub2RlIGVsbGlwc2UsI2dlTWVybWFpZE91dHB1dC0xNzQzOTUyMzc5MTU1IC5ub2RlIHBvbHlnb24sI2dlTWVybWFpZE91dHB1dC0xNzQzOTUyMzc5MTU1IC5ub2RlIHBhdGh7ZmlsbDojZWVlO3N0cm9rZTojOTk5O3N0cm9rZS13aWR0aDoxcHg7fSNnZU1lcm1haWRPdXRwdXQtMTc0Mzk1MjM3OTE1NSAucm91Z2gtbm9kZSAubGFiZWwgdGV4dCwjZ2VNZXJtYWlkT3V0cHV0LTE3NDM5NTIzNzkxNTUgLm5vZGUgLmxhYmVsIHRleHQsI2dlTWVybWFpZE91dHB1dC0xNzQzOTUyMzc5MTU1IC5pbWFnZS1zaGFwZSAubGFiZWwsI2dlTWVybWFpZE91dHB1dC0xNzQzOTUyMzc5MTU1IC5pY29uLXNoYXBlIC5sYWJlbHt0ZXh0LWFuY2hvcjptaWRkbGU7fSNnZU1lcm1haWRPdXRwdXQtMTc0Mzk1MjM3OTE1NSAubm9kZSAua2F0ZXggcGF0aHtmaWxsOiMwMDA7c3Ryb2tlOiMwMDA7c3Ryb2tlLXdpZHRoOjFweDt9I2dlTWVybWFpZE91dHB1dC0xNzQzOTUyMzc5MTU1IC5yb3VnaC1ub2RlIC5sYWJlbCwjZ2VNZXJtYWlkT3V0cHV0LTE3NDM5NTIzNzkxNTUgLm5vZGUgLmxhYmVsLCNnZU1lcm1haWRPdXRwdXQtMTc0Mzk1MjM3OTE1NSAuaW1hZ2Utc2hhcGUgLmxhYmVsLCNnZU1lcm1haWRPdXRwdXQtMTc0Mzk1MjM3OTE1NSAuaWNvbi1zaGFwZSAubGFiZWx7dGV4dC1hbGlnbjpjZW50ZXI7fSNnZU1lcm1haWRPdXRwdXQtMTc0Mzk1MjM3OTE1NSAubm9kZS5jbGlja2FibGV7Y3Vyc29yOnBvaW50ZXI7fSNnZU1lcm1haWRPdXRwdXQtMTc0Mzk1MjM3OTE1NSAucm9vdCAuYW5jaG9yIHBhdGh7ZmlsbDojNjY2IWltcG9ydGFudDtzdHJva2Utd2lkdGg6MDtzdHJva2U6IzY2Njt9I2dlTWVybWFpZE91dHB1dC0xNzQzOTUyMzc5MTU1IC5hcnJvd2hlYWRQYXRoe2ZpbGw6IzMzMzMzMzt9I2dlTWVybWFpZE91dHB1dC0xNzQzOTUyMzc5MTU1IC5lZGdlUGF0aCAucGF0aHtzdHJva2U6IzY2NjtzdHJva2Utd2lkdGg6Mi4wcHg7fSNnZU1lcm1haWRPdXRwdXQtMTc0Mzk1MjM3OTE1NSAuZmxvd2NoYXJ0LWxpbmt7c3Ryb2tlOiM2NjY7ZmlsbDpub25lO30jZ2VNZXJtYWlkT3V0cHV0LTE3NDM5NTIzNzkxNTUgLmVkZ2VMYWJlbHtiYWNrZ3JvdW5kLWNvbG9yOndoaXRlO3RleHQtYWxpZ246Y2VudGVyO30jZ2VNZXJtYWlkT3V0cHV0LTE3NDM5NTIzNzkxNTUgLmVkZ2VMYWJlbCBwe2JhY2tncm91bmQtY29sb3I6d2hpdGU7fSNnZU1lcm1haWRPdXRwdXQtMTc0Mzk1MjM3OTE1NSAuZWRnZUxhYmVsIHJlY3R7b3BhY2l0eTowLjU7YmFja2dyb3VuZC1jb2xvcjp3aGl0ZTtmaWxsOndoaXRlO30jZ2VNZXJtYWlkT3V0cHV0LTE3NDM5NTIzNzkxNTUgLmxhYmVsQmtne2JhY2tncm91bmQtY29sb3I6cmdiYSgyNTUsIDI1NSwgMjU1LCAwLjUpO30jZ2VNZXJtYWlkT3V0cHV0LTE3NDM5NTIzNzkxNTUgLmNsdXN0ZXIgcmVjdHtmaWxsOmhzbCgwLCAwJSwgOTguOTIxNTY4NjI3NSUpO3N0cm9rZTojNzA3MDcwO3N0cm9rZS13aWR0aDoxcHg7fSNnZU1lcm1haWRPdXRwdXQtMTc0Mzk1MjM3OTE1NSAuY2x1c3RlciB0ZXh0e2ZpbGw6IzMzMzt9I2dlTWVybWFpZE91dHB1dC0xNzQzOTUyMzc5MTU1IC5jbHVzdGVyIHNwYW57Y29sb3I6IzMzMzt9I2dlTWVybWFpZE91dHB1dC0xNzQzOTUyMzc5MTU1IGRpdi5tZXJtYWlkVG9vbHRpcHtwb3NpdGlvbjphYnNvbHV0ZTt0ZXh0LWFsaWduOmNlbnRlcjttYXgtd2lkdGg6MjAwcHg7cGFkZGluZzoycHg7Zm9udC1mYW1pbHk6InRyZWJ1Y2hldCBtcyIsdmVyZGFuYSxhcmlhbCxzYW5zLXNlcmlmO2ZvbnQtc2l6ZToxMnB4O2JhY2tncm91bmQ6aHNsKC0xNjAsIDAlLCA5My4zMzMzMzMzMzMzJSk7Ym9yZGVyOjFweCBzb2xpZCAjNzA3MDcwO2JvcmRlci1yYWRpdXM6MnB4O3BvaW50ZXItZXZlbnRzOm5vbmU7ei1pbmRleDoxMDA7fSNnZU1lcm1haWRPdXRwdXQtMTc0Mzk1MjM3OTE1NSAuZmxvd2NoYXJ0VGl0bGVUZXh0e3RleHQtYW5jaG9yOm1pZGRsZTtmb250LXNpemU6MThweDtmaWxsOiMwMDAwMDA7fSNnZU1lcm1haWRPdXRwdXQtMTc0Mzk1MjM3OTE1NSByZWN0LnRleHR7ZmlsbDpub25lO3N0cm9rZS13aWR0aDowO30jZ2VNZXJtYWlkT3V0cHV0LTE3NDM5NTIzNzkxNTUgLmljb24tc2hhcGUsI2dlTWVybWFpZE91dHB1dC0xNzQzOTUyMzc5MTU1IC5pbWFnZS1zaGFwZXtiYWNrZ3JvdW5kLWNvbG9yOndoaXRlO3RleHQtYWxpZ246Y2VudGVyO30jZ2VNZXJtYWlkT3V0cHV0LTE3NDM5NTIzNzkxNTUgLmljb24tc2hhcGUgcCwjZ2VNZXJtYWlkT3V0cHV0LTE3NDM5NTIzNzkxNTUgLmltYWdlLXNoYXBlIHB7YmFja2dyb3VuZC1jb2xvcjp3aGl0ZTtwYWRkaW5nOjJweDt9I2dlTWVybWFpZE91dHB1dC0xNzQzOTUyMzc5MTU1IC5pY29uLXNoYXBlIHJlY3QsI2dlTWVybWFpZE91dHB1dC0xNzQzOTUyMzc5MTU1IC5pbWFnZS1zaGFwZSByZWN0e29wYWNpdHk6MC41O2JhY2tncm91bmQtY29sb3I6d2hpdGU7ZmlsbDp3aGl0ZTt9I2dlTWVybWFpZE91dHB1dC0xNzQzOTUyMzc5MTU1IDpyb290ey0tbWVybWFpZC1mb250LWZhbWlseToidHJlYnVjaGV0IG1zIix2ZXJkYW5hLGFyaWFsLHNhbnMtc2VyaWY7fTwvc3R5bGU+PGc+PG1hcmtlciBvcmllbnQ9ImF1dG8iIG1hcmtlckhlaWdodD0iOCIgbWFya2VyV2lkdGg9IjgiIG1hcmtlclVuaXRzPSJ1c2VyU3BhY2VPblVzZSIgcmVmWT0iNSIgcmVmWD0iNSIgdmlld0JveD0iMCAwIDEwIDEwIiBjbGFzcz0ibWFya2VyIGZsb3djaGFydC12MiIgaWQ9ImdlTWVybWFpZE91dHB1dC0xNzQzOTUyMzc5MTU1X2Zsb3djaGFydC12Mi1wb2ludEVuZCI+PHBhdGggc3R5bGU9InN0cm9rZS13aWR0aDogMTsgc3Ryb2tlLWRhc2hhcnJheTogMSwgMDsiIGNsYXNzPSJhcnJvd01hcmtlclBhdGgiIGQ9Ik0gMCAwIEwgMTAgNSBMIDAgMTAgeiI+PC9wYXRoPjwvbWFya2VyPjxtYXJrZXIgb3JpZW50PSJhdXRvIiBtYXJrZXJIZWlnaHQ9IjgiIG1hcmtlcldpZHRoPSI4IiBtYXJrZXJVbml0cz0idXNlclNwYWNlT25Vc2UiIHJlZlk9IjUiIHJlZlg9IjQuNSIgdmlld0JveD0iMCAwIDEwIDEwIiBjbGFzcz0ibWFya2VyIGZsb3djaGFydC12MiIgaWQ9ImdlTWVybWFpZE91dHB1dC0xNzQzOTUyMzc5MTU1X2Zsb3djaGFydC12Mi1wb2ludFN0YXJ0Ij48cGF0aCBzdHlsZT0ic3Ryb2tlLXdpZHRoOiAxOyBzdHJva2UtZGFzaGFycmF5OiAxLCAwOyIgY2xhc3M9ImFycm93TWFya2VyUGF0aCIgZD0iTSAwIDUgTCAxMCAxMCBMIDEwIDAgeiI+PC9wYXRoPjwvbWFya2VyPjxtYXJrZXIgb3JpZW50PSJhdXRvIiBtYXJrZXJIZWlnaHQ9IjExIiBtYXJrZXJXaWR0aD0iMTEiIG1hcmtlclVuaXRzPSJ1c2VyU3BhY2VPblVzZSIgcmVmWT0iNSIgcmVmWD0iMTEiIHZpZXdCb3g9IjAgMCAxMCAxMCIgY2xhc3M9Im1hcmtlciBmbG93Y2hhcnQtdjIiIGlkPSJnZU1lcm1haWRPdXRwdXQtMTc0Mzk1MjM3OTE1NV9mbG93Y2hhcnQtdjItY2lyY2xlRW5kIj48Y2lyY2xlIHN0eWxlPSJzdHJva2Utd2lkdGg6IDE7IHN0cm9rZS1kYXNoYXJyYXk6IDEsIDA7IiBjbGFzcz0iYXJyb3dNYXJrZXJQYXRoIiByPSI1IiBjeT0iNSIgY3g9IjUiPjwvY2lyY2xlPjwvbWFya2VyPjxtYXJrZXIgb3JpZW50PSJhdXRvIiBtYXJrZXJIZWlnaHQ9IjExIiBtYXJrZXJXaWR0aD0iMTEiIG1hcmtlclVuaXRzPSJ1c2VyU3BhY2VPblVzZSIgcmVmWT0iNSIgcmVmWD0iLTEiIHZpZXdCb3g9IjAgMCAxMCAxMCIgY2xhc3M9Im1hcmtlciBmbG93Y2hhcnQtdjIiIGlkPSJnZU1lcm1haWRPdXRwdXQtMTc0Mzk1MjM3OTE1NV9mbG93Y2hhcnQtdjItY2lyY2xlU3RhcnQiPjxjaXJjbGUgc3R5bGU9InN0cm9rZS13aWR0aDogMTsgc3Ryb2tlLWRhc2hhcnJheTogMSwgMDsiIGNsYXNzPSJhcnJvd01hcmtlclBhdGgiIHI9IjUiIGN5PSI1IiBjeD0iNSI+PC9jaXJjbGU+PC9tYXJrZXI+PG1hcmtlciBvcmllbnQ9ImF1dG8iIG1hcmtlckhlaWdodD0iMTEiIG1hcmtlcldpZHRoPSIxMSIgbWFya2VyVW5pdHM9InVzZXJTcGFjZU9uVXNlIiByZWZZPSI1LjIiIHJlZlg9IjEyIiB2aWV3Qm94PSIwIDAgMTEgMTEiIGNsYXNzPSJtYXJrZXIgY3Jvc3MgZmxvd2NoYXJ0LXYyIiBpZD0iZ2VNZXJtYWlkT3V0cHV0LTE3NDM5NTIzNzkxNTVfZmxvd2NoYXJ0LXYyLWNyb3NzRW5kIj48cGF0aCBzdHlsZT0ic3Ryb2tlLXdpZHRoOiAyOyBzdHJva2UtZGFzaGFycmF5OiAxLCAwOyIgY2xhc3M9ImFycm93TWFya2VyUGF0aCIgZD0iTSAxLDEgbCA5LDkgTSAxMCwxIGwgLTksOSI+PC9wYXRoPjwvbWFya2VyPjxtYXJrZXIgb3JpZW50PSJhdXRvIiBtYXJrZXJIZWlnaHQ9IjExIiBtYXJrZXJXaWR0aD0iMTEiIG1hcmtlclVuaXRzPSJ1c2VyU3BhY2VPblVzZSIgcmVmWT0iNS4yIiByZWZYPSItMSIgdmlld0JveD0iMCAwIDExIDExIiBjbGFzcz0ibWFya2VyIGNyb3NzIGZsb3djaGFydC12MiIgaWQ9ImdlTWVybWFpZE91dHB1dC0xNzQzOTUyMzc5MTU1X2Zsb3djaGFydC12Mi1jcm9zc1N0YXJ0Ij48cGF0aCBzdHlsZT0ic3Ryb2tlLXdpZHRoOiAyOyBzdHJva2UtZGFzaGFycmF5OiAxLCAwOyIgY2xhc3M9ImFycm93TWFya2VyUGF0aCIgZD0iTSAxLDEgbCA5LDkgTSAxMCwxIGwgLTksOSI+PC9wYXRoPjwvbWFya2VyPjxnIGNsYXNzPSJyb290Ij48ZyBjbGFzcz0iY2x1c3RlcnMiPjxnIGRhdGEtbG9vaz0iY2xhc3NpYyIgaWQ9InN1YkdyYXBoMSIgY2xhc3M9ImNsdXN0ZXIiPjxyZWN0IGhlaWdodD0iNDE2IiB3aWR0aD0iNDA0LjA3ODEyNSIgeT0iMTIxNiIgeD0iOCIgc3R5bGU9IiI+PC9yZWN0PjxnIHRyYW5zZm9ybT0idHJhbnNsYXRlKDEzNC45NDUzMTI1LCAxMjE2KSIgY2xhc3M9ImNsdXN0ZXItbGFiZWwiPjxnPjxyZWN0IHN0eWxlPSJzdHJva2U6IG5vbmUiIGNsYXNzPSJiYWNrZ3JvdW5kIj48L3JlY3Q+PHRleHQgc3R5bGU9IiIgeT0iLTEwLjEiPjx0c3BhbiBkeT0iMS4xZW0iIHk9Ii0wLjFlbSIgeD0iMCIgY2xhc3M9InRleHQtb3V0ZXItdHNwYW4iPjx0c3BhbiBmb250LXdlaWdodD0ibm9ybWFsIiBjbGFzcz0idGV4dC1pbm5lci10c3BhbiIgZm9udC1zdHlsZT0ibm9ybWFsIj5Qcm9jZXNhbWllbnRvPC90c3Bhbj48dHNwYW4gZm9udC13ZWlnaHQ9Im5vcm1hbCIgY2xhc3M9InRleHQtaW5uZXItdHNwYW4iIGZvbnQtc3R5bGU9Im5vcm1hbCI+IENsb3VkPC90c3Bhbj48L3RzcGFuPjwvdGV4dD48L2c+PC9nPjwvZz48ZyBkYXRhLWxvb2s9ImNsYXNzaWMiIGlkPSJzdWJHcmFwaDAiIGNsYXNzPSJjbHVzdGVyIj48cmVjdCBoZWlnaHQ9IjY5NiIgd2lkdGg9IjMzMCIgeT0iMzY2IiB4PSI0NS4wMzkwNjI1IiBzdHlsZT0iIj48L3JlY3Q+PGcgdHJhbnNmb3JtPSJ0cmFuc2xhdGUoMTI0LjM5MDYyNSwgMzY2KSIgY2xhc3M9ImNsdXN0ZXItbGFiZWwiPjxnPjxyZWN0IHN0eWxlPSJzdHJva2U6IG5vbmUiIGNsYXNzPSJiYWNrZ3JvdW5kIj48L3JlY3Q+PHRleHQgc3R5bGU9IiIgeT0iLTEwLjEiPjx0c3BhbiBkeT0iMS4xZW0iIHk9Ii0wLjFlbSIgeD0iMCIgY2xhc3M9InRleHQtb3V0ZXItdHNwYW4iPjx0c3BhbiBmb250LXdlaWdodD0ibm9ybWFsIiBjbGFzcz0idGV4dC1pbm5lci10c3BhbiIgZm9udC1zdHlsZT0ibm9ybWFsIj5FbnRvcm5vPC90c3Bhbj48dHNwYW4gZm9udC13ZWlnaHQ9Im5vcm1hbCIgY2xhc3M9InRleHQtaW5uZXItdHNwYW4iIGZvbnQtc3R5bGU9Im5vcm1hbCI+IENsb3VkPC90c3Bhbj48dHNwYW4gZm9udC13ZWlnaHQ9Im5vcm1hbCIgY2xhc3M9InRleHQtaW5uZXItdHNwYW4iIGZvbnQtc3R5bGU9Im5vcm1hbCI+IFNpbXVsYWRvPC90c3Bhbj48L3RzcGFuPjwvdGV4dD48L2c+PC9nPjwvZz48L2c+PGcgY2xhc3M9ImVkZ2VQYXRocyI+PHBhdGggbWFya2VyLWVuZD0idXJsKCNnZU1lcm1haWRPdXRwdXQtMTc0Mzk1MjM3OTE1NV9mbG93Y2hhcnQtdjItcG9pbnRFbmQpIiBzdHlsZT0iIiBjbGFzcz0iZWRnZS10aGlja25lc3Mtbm9ybWFsIGVkZ2UtcGF0dGVybi1zb2xpZCBlZGdlLXRoaWNrbmVzcy1ub3JtYWwgZWRnZS1wYXR0ZXJuLXNvbGlkIGZsb3djaGFydC1saW5rIiBpZD0iTF9BX0JfMCIgZD0iTTIxMC4wMzksNjJMMjEwLjAzOSw2OC4wODNDMjEwLjAzOSw3NC4xNjcsMjEwLjAzOSw4Ni4zMzMsMjEwLjAzOSw5Ny44MzNDMjEwLjAzOSwxMDkuMzMzLDIxMC4wMzksMTIwLjE2NywyMTAuMDM5LDEyNS41ODNMMjEwLjAzOSwxMzEiPjwvcGF0aD48cGF0aCBtYXJrZXItZW5kPSJ1cmwoI2dlTWVybWFpZE91dHB1dC0xNzQzOTUyMzc5MTU1X2Zsb3djaGFydC12Mi1wb2ludEVuZCkiIHN0eWxlPSIiIGNsYXNzPSJlZGdlLXRoaWNrbmVzcy1ub3JtYWwgZWRnZS1wYXR0ZXJuLXNvbGlkIGVkZ2UtdGhpY2tuZXNzLW5vcm1hbCBlZGdlLXBhdHRlcm4tc29saWQgZmxvd2NoYXJ0LWxpbmsiIGlkPSJMX0JfQ18xIiBkPSJNMjEwLjAzOSwxODlMMjEwLjAzOSwxOTUuMDgzQzIxMC4wMzksMjAxLjE2NywyMTAuMDM5LDIxMy4zMzMsMjEwLjAzOSwyMjQuODMzQzIxMC4wMzksMjM2LjMzMywyMTAuMDM5LDI0Ny4xNjcsMjEwLjAzOSwyNTIuNTgzTDIxMC4wMzksMjU4Ij48L3BhdGg+PHBhdGggbWFya2VyLWVuZD0idXJsKCNnZU1lcm1haWRPdXRwdXQtMTc0Mzk1MjM3OTE1NV9mbG93Y2hhcnQtdjItcG9pbnRFbmQpIiBzdHlsZT0iIiBjbGFzcz0iZWRnZS10aGlja25lc3Mtbm9ybWFsIGVkZ2UtcGF0dGVybi1zb2xpZCBlZGdlLXRoaWNrbmVzcy1ub3JtYWwgZWRnZS1wYXR0ZXJuLXNvbGlkIGZsb3djaGFydC1saW5rIiBpZD0iTF9DX0RfMiIgZD0iTTIxMC4wMzksMzE2TDIxMC4wMzksMzIwLjE2N0MyMTAuMDM5LDMyNC4zMzMsMjEwLjAzOSwzMzIuNjY3LDIxMC4wMzksMzQxQzIxMC4wMzksMzQ5LjMzMywyMTAuMDM5LDM1Ny42NjcsMjEwLjAzOSwzNjUuMzMzQzIxMC4wMzksMzczLDIxMC4wMzksMzgwLDIxMC4wMzksMzgzLjVMMjEwLjAzOSwzODciPjwvcGF0aD48cGF0aCBtYXJrZXItZW5kPSJ1cmwoI2dlTWVybWFpZE91dHB1dC0xNzQzOTUyMzc5MTU1X2Zsb3djaGFydC12Mi1wb2ludEVuZCkiIHN0eWxlPSIiIGNsYXNzPSJlZGdlLXRoaWNrbmVzcy1ub3JtYWwgZWRnZS1wYXR0ZXJuLXNvbGlkIGVkZ2UtdGhpY2tuZXNzLW5vcm1hbCBlZGdlLXBhdHRlcm4tc29saWQgZmxvd2NoYXJ0LWxpbmsiIGlkPSJMX0RfRV8zIiBkPSJNMjEwLjAzOSw0NDVMMjEwLjAzOSw0NDkuMTY3QzIxMC4wMzksNDUzLjMzMywyMTAuMDM5LDQ2MS42NjcsMjEwLjAzOSw0NjkuMzMzQzIxMC4wMzksNDc3LDIxMC4wMzksNDg0LDIxMC4wMzksNDg3LjVMMjEwLjAzOSw0OTEiPjwvcGF0aD48cGF0aCBtYXJrZXItZW5kPSJ1cmwoI2dlTWVybWFpZE91dHB1dC0xNzQzOTUyMzc5MTU1X2Zsb3djaGFydC12Mi1wb2ludEVuZCkiIHN0eWxlPSIiIGNsYXNzPSJlZGdlLXRoaWNrbmVzcy1ub3JtYWwgZWRnZS1wYXR0ZXJuLXNvbGlkIGVkZ2UtdGhpY2tuZXNzLW5vcm1hbCBlZGdlLXBhdHRlcm4tc29saWQgZmxvd2NoYXJ0LWxpbmsiIGlkPSJMX0VfRl80IiBkPSJNMjEwLjAzOSw1NDlMMjEwLjAzOSw1NTMuMTY3QzIxMC4wMzksNTU3LjMzMywyMTAuMDM5LDU2NS42NjcsMjEwLjAzOSw1NzMuMzMzQzIxMC4wMzksNTgxLDIxMC4wMzksNTg4LDIxMC4wMzksNTkxLjVMMjEwLjAzOSw1OTUiPjwvcGF0aD48cGF0aCBtYXJrZXItZW5kPSJ1cmwoI2dlTWVybWFpZE91dHB1dC0xNzQzOTUyMzc5MTU1X2Zsb3djaGFydC12Mi1wb2ludEVuZCkiIHN0eWxlPSIiIGNsYXNzPSJlZGdlLXRoaWNrbmVzcy1ub3JtYWwgZWRnZS1wYXR0ZXJuLXNvbGlkIGVkZ2UtdGhpY2tuZXNzLW5vcm1hbCBlZGdlLXBhdHRlcm4tc29saWQgZmxvd2NoYXJ0LWxpbmsiIGlkPSJMX0ZfR181IiBkPSJNMjEwLjAzOSw2NzdMMjEwLjAzOSw2ODEuMTY3QzIxMC4wMzksNjg1LjMzMywyMTAuMDM5LDY5My42NjcsMjEwLjAzOSw3MDEuMzMzQzIxMC4wMzksNzA5LDIxMC4wMzksNzE2LDIxMC4wMzksNzE5LjVMMjEwLjAzOSw3MjMiPjwvcGF0aD48cGF0aCBtYXJrZXItZW5kPSJ1cmwoI2dlTWVybWFpZE91dHB1dC0xNzQzOTUyMzc5MTU1X2Zsb3djaGFydC12Mi1wb2ludEVuZCkiIHN0eWxlPSIiIGNsYXNzPSJlZGdlLXRoaWNrbmVzcy1ub3JtYWwgZWRnZS1wYXR0ZXJuLXNvbGlkIGVkZ2UtdGhpY2tuZXNzLW5vcm1hbCBlZGdlLXBhdHRlcm4tc29saWQgZmxvd2NoYXJ0LWxpbmsiIGlkPSJMX0dfSF82IiBkPSJNMjEwLjAzOSw3ODFMMjEwLjAzOSw3ODUuMTY3QzIxMC4wMzksNzg5LjMzMywyMTAuMDM5LDc5Ny42NjcsMjEwLjAzOSw4MDUuMzMzQzIxMC4wMzksODEzLDIxMC4wMzksODIwLDIxMC4wMzksODIzLjVMMjEwLjAzOSw4MjciPjwvcGF0aD48cGF0aCBtYXJrZXItZW5kPSJ1cmwoI2dlTWVybWFpZE91dHB1dC0xNzQzOTUyMzc5MTU1X2Zsb3djaGFydC12Mi1wb2ludEVuZCkiIHN0eWxlPSIiIGNsYXNzPSJlZGdlLXRoaWNrbmVzcy1ub3JtYWwgZWRnZS1wYXR0ZXJuLXNvbGlkIGVkZ2UtdGhpY2tuZXNzLW5vcm1hbCBlZGdlLXBhdHRlcm4tc29saWQgZmxvd2NoYXJ0LWxpbmsiIGlkPSJMX0hfSV83IiBkPSJNMjEwLjAzOSw5MDlMMjEwLjAzOSw5MTMuMTY3QzIxMC4wMzksOTE3LjMzMywyMTAuMDM5LDkyNS42NjcsMjEwLjAzOSw5MzMuMzMzQzIxMC4wMzksOTQxLDIxMC4wMzksOTQ4LDIxMC4wMzksOTUxLjVMMjEwLjAzOSw5NTUiPjwvcGF0aD48cGF0aCBtYXJrZXItZW5kPSJ1cmwoI2dlTWVybWFpZE91dHB1dC0xNzQzOTUyMzc5MTU1X2Zsb3djaGFydC12Mi1wb2ludEVuZCkiIHN0eWxlPSIiIGNsYXNzPSJlZGdlLXRoaWNrbmVzcy1ub3JtYWwgZWRnZS1wYXR0ZXJuLXNvbGlkIGVkZ2UtdGhpY2tuZXNzLW5vcm1hbCBlZGdlLXBhdHRlcm4tc29saWQgZmxvd2NoYXJ0LWxpbmsiIGlkPSJMX0lfSl84IiBkPSJNMjEwLjAzOSwxMDM3TDIxMC4wMzksMTA0MS4xNjdDMjEwLjAzOSwxMDQ1LjMzMywyMTAuMDM5LDEwNTMuNjY3LDIxMC4wMzksMTA2MkMyMTAuMDM5LDEwNzAuMzMzLDIxMC4wMzksMTA3OC42NjcsMjEwLjAzOSwxMDg2LjMzM0MyMTAuMDM5LDEwOTQsMjEwLjAzOSwxMTAxLDIxMC4wMzksMTEwNC41TDIxMC4wMzksMTEwOCI+PC9wYXRoPjxwYXRoIG1hcmtlci1lbmQ9InVybCgjZ2VNZXJtYWlkT3V0cHV0LTE3NDM5NTIzNzkxNTVfZmxvd2NoYXJ0LXYyLXBvaW50RW5kKSIgc3R5bGU9IiIgY2xhc3M9ImVkZ2UtdGhpY2tuZXNzLW5vcm1hbCBlZGdlLXBhdHRlcm4tc29saWQgZWRnZS10aGlja25lc3Mtbm9ybWFsIGVkZ2UtcGF0dGVybi1zb2xpZCBmbG93Y2hhcnQtbGluayIgaWQ9IkxfSl9LXzkiIGQ9Ik0yMTAuMDM5LDExNjZMMjEwLjAzOSwxMTcwLjE2N0MyMTAuMDM5LDExNzQuMzMzLDIxMC4wMzksMTE4Mi42NjcsMjEwLjAzOSwxMTkxQzIxMC4wMzksMTE5OS4zMzMsMjEwLjAzOSwxMjA3LjY2NywyMTAuMDM5LDEyMTUuMzMzQzIxMC4wMzksMTIyMywyMTAuMDM5LDEyMzAsMjEwLjAzOSwxMjMzLjVMMjEwLjAzOSwxMjM3Ij48L3BhdGg+PHBhdGggbWFya2VyLWVuZD0idXJsKCNnZU1lcm1haWRPdXRwdXQtMTc0Mzk1MjM3OTE1NV9mbG93Y2hhcnQtdjItcG9pbnRFbmQpIiBzdHlsZT0iIiBjbGFzcz0iZWRnZS10aGlja25lc3Mtbm9ybWFsIGVkZ2UtcGF0dGVybi1zb2xpZCBlZGdlLXRoaWNrbmVzcy1ub3JtYWwgZWRnZS1wYXR0ZXJuLXNvbGlkIGZsb3djaGFydC1saW5rIiBpZD0iTF9LX0xfMTAiIGQ9Ik0yMTAuMDM5LDEyOTVMMjEwLjAzOSwxMjk5LjE2N0MyMTAuMDM5LDEzMDMuMzMzLDIxMC4wMzksMTMxMS42NjcsMjEwLjAzOSwxMzE5LjMzM0MyMTAuMDM5LDEzMjcsMjEwLjAzOSwxMzM0LDIxMC4wMzksMTMzNy41TDIxMC4wMzksMTM0MSI+PC9wYXRoPjxwYXRoIG1hcmtlci1lbmQ9InVybCgjZ2VNZXJtYWlkT3V0cHV0LTE3NDM5NTIzNzkxNTVfZmxvd2NoYXJ0LXYyLXBvaW50RW5kKSIgc3R5bGU9IiIgY2xhc3M9ImVkZ2UtdGhpY2tuZXNzLW5vcm1hbCBlZGdlLXBhdHRlcm4tc29saWQgZWRnZS10aGlja25lc3Mtbm9ybWFsIGVkZ2UtcGF0dGVybi1zb2xpZCBmbG93Y2hhcnQtbGluayIgaWQ9IkxfTF9NXzExIiBkPSJNMjEwLjAzOSwxMzk5TDIxMC4wMzksMTQwMy4xNjdDMjEwLjAzOSwxNDA3LjMzMywyMTAuMDM5LDE0MTUuNjY3LDIxMC4wMzksMTQyMy4zMzNDMjEwLjAzOSwxNDMxLDIxMC4wMzksMTQzOCwyMTAuMDM5LDE0NDEuNUwyMTAuMDM5LDE0NDUiPjwvcGF0aD48cGF0aCBtYXJrZXItZW5kPSJ1cmwoI2dlTWVybWFpZE91dHB1dC0xNzQzOTUyMzc5MTU1X2Zsb3djaGFydC12Mi1wb2ludEVuZCkiIHN0eWxlPSIiIGNsYXNzPSJlZGdlLXRoaWNrbmVzcy1ub3JtYWwgZWRnZS1wYXR0ZXJuLXNvbGlkIGVkZ2UtdGhpY2tuZXNzLW5vcm1hbCBlZGdlLXBhdHRlcm4tc29saWQgZmxvd2NoYXJ0LWxpbmsiIGlkPSJMX01fTl8xMiIgZD0iTTIxMC4wMzksMTUwM0wyMTAuMDM5LDE1MDcuMTY3QzIxMC4wMzksMTUxMS4zMzMsMjEwLjAzOSwxNTE5LjY2NywyMTAuMDM5LDE1MjcuMzMzQzIxMC4wMzksMTUzNSwyMTAuMDM5LDE1NDIsMjEwLjAzOSwxNTQ1LjVMMjEwLjAzOSwxNTQ5Ij48L3BhdGg+PHBhdGggbWFya2VyLWVuZD0idXJsKCNnZU1lcm1haWRPdXRwdXQtMTc0Mzk1MjM3OTE1NV9mbG93Y2hhcnQtdjItcG9pbnRFbmQpIiBzdHlsZT0iIiBjbGFzcz0iZWRnZS10aGlja25lc3Mtbm9ybWFsIGVkZ2UtcGF0dGVybi1zb2xpZCBlZGdlLXRoaWNrbmVzcy1ub3JtYWwgZWRnZS1wYXR0ZXJuLXNvbGlkIGZsb3djaGFydC1saW5rIiBpZD0iTF9OX09fMTMiIGQ9Ik0yMTAuMDM5LDE2MDdMMjEwLjAzOSwxNjExLjE2N0MyMTAuMDM5LDE2MTUuMzMzLDIxMC4wMzksMTYyMy42NjcsMjEwLjAzOSwxNjMyQzIxMC4wMzksMTY0MC4zMzMsMjEwLjAzOSwxNjQ4LjY2NywyMTAuMDM5LDE2NTYuMzMzQzIxMC4wMzksMTY2NCwyMTAuMDM5LDE2NzEsMjEwLjAzOSwxNjc0LjVMMjEwLjAzOSwxNjc4Ij48L3BhdGg+PHBhdGggbWFya2VyLWVuZD0idXJsKCNnZU1lcm1haWRPdXRwdXQtMTc0Mzk1MjM3OTE1NV9mbG93Y2hhcnQtdjItcG9pbnRFbmQpIiBzdHlsZT0iIiBjbGFzcz0iZWRnZS10aGlja25lc3Mtbm9ybWFsIGVkZ2UtcGF0dGVybi1zb2xpZCBlZGdlLXRoaWNrbmVzcy1ub3JtYWwgZWRnZS1wYXR0ZXJuLXNvbGlkIGZsb3djaGFydC1saW5rIiBpZD0iTF9PX1BfMTQiIGQ9Ik0yMTAuMDM5LDE3ODRMMjEwLjAzOSwxNzg4LjE2N0MyMTAuMDM5LDE3OTIuMzMzLDIxMC4wMzksMTgwMC42NjcsMjEwLjAzOSwxODA4LjMzM0MyMTAuMDM5LDE4MTYsMjEwLjAzOSwxODIzLDIxMC4wMzksMTgyNi41TDIxMC4wMzksMTgzMCI+PC9wYXRoPjwvZz48ZyBjbGFzcz0iZWRnZUxhYmVscyI+PGc+PHJlY3Qgc3R5bGU9InN0cm9rZTogbm9uZSIgY2xhc3M9ImJhY2tncm91bmQiPjwvcmVjdD48L2c+PGc+PHJlY3Qgc3R5bGU9InN0cm9rZTogbm9uZSIgY2xhc3M9ImJhY2tncm91bmQiPjwvcmVjdD48L2c+PGc+PHJlY3Qgc3R5bGU9InN0cm9rZTogbm9uZSIgY2xhc3M9ImJhY2tncm91bmQiPjwvcmVjdD48L2c+PGc+PHJlY3Qgc3R5bGU9InN0cm9rZTogbm9uZSIgY2xhc3M9ImJhY2tncm91bmQiPjwvcmVjdD48L2c+PGc+PHJlY3Qgc3R5bGU9InN0cm9rZTogbm9uZSIgY2xhc3M9ImJhY2tncm91bmQiPjwvcmVjdD48L2c+PGc+PHJlY3Qgc3R5bGU9InN0cm9rZTogbm9uZSIgY2xhc3M9ImJhY2tncm91bmQiPjwvcmVjdD48L2c+PGc+PHJlY3Qgc3R5bGU9InN0cm9rZTogbm9uZSIgY2xhc3M9ImJhY2tncm91bmQiPjwvcmVjdD48L2c+PGc+PHJlY3Qgc3R5bGU9InN0cm9rZTogbm9uZSIgY2xhc3M9ImJhY2tncm91bmQiPjwvcmVjdD48L2c+PGc+PHJlY3Qgc3R5bGU9InN0cm9rZTogbm9uZSIgY2xhc3M9ImJhY2tncm91bmQiPjwvcmVjdD48L2c+PGc+PHJlY3Qgc3R5bGU9InN0cm9rZTogbm9uZSIgY2xhc3M9ImJhY2tncm91bmQiPjwvcmVjdD48L2c+PGc+PHJlY3Qgc3R5bGU9InN0cm9rZTogbm9uZSIgY2xhc3M9ImJhY2tncm91bmQiPjwvcmVjdD48L2c+PGc+PHJlY3Qgc3R5bGU9InN0cm9rZTogbm9uZSIgY2xhc3M9ImJhY2tncm91bmQiPjwvcmVjdD48L2c+PGc+PHJlY3Qgc3R5bGU9InN0cm9rZTogbm9uZSIgY2xhc3M9ImJhY2tncm91bmQiPjwvcmVjdD48L2c+PGcgdHJhbnNmb3JtPSJ0cmFuc2xhdGUoMjEwLjAzOTA2MjUsIDk4LjUpIiBjbGFzcz0iZWRnZUxhYmVsIj48ZyB0cmFuc2Zvcm09InRyYW5zbGF0ZSgtMzEuODQ3NjU2MjUsIC0xMS41KSIgY2xhc3M9ImxhYmVsIj48Zz48cmVjdCBoZWlnaHQ9IjIzIiB3aWR0aD0iNjMuNjk1MzEyNSIgeT0iLTEiIHg9Ii0yIiBzdHlsZT0iIiBjbGFzcz0iYmFja2dyb3VuZCI+PC9yZWN0Pjx0ZXh0IHN0eWxlPSIiIHk9Ii0xMC4xIj48dHNwYW4gZHk9IjEuMWVtIiB5PSItMC4xZW0iIHg9IjAiIGNsYXNzPSJ0ZXh0LW91dGVyLXRzcGFuIj48dHNwYW4gZm9udC13ZWlnaHQ9Im5vcm1hbCIgY2xhc3M9InRleHQtaW5uZXItdHNwYW4iIGZvbnQtc3R5bGU9Im5vcm1hbCI+R2l0PC90c3Bhbj48dHNwYW4gZm9udC13ZWlnaHQ9Im5vcm1hbCIgY2xhc3M9InRleHQtaW5uZXItdHNwYW4iIGZvbnQtc3R5bGU9Im5vcm1hbCI+IFB1c2g8L3RzcGFuPjwvdHNwYW4+PC90ZXh0PjwvZz48L2c+PC9nPjxnIHRyYW5zZm9ybT0idHJhbnNsYXRlKDIxMC4wMzkwNjI1LCAyMjUuNSkiIGNsYXNzPSJlZGdlTGFiZWwiPjxnIHRyYW5zZm9ybT0idHJhbnNsYXRlKC0yNy41NTA3ODEyNSwgLTExLjUpIiBjbGFzcz0ibGFiZWwiPjxnPjxyZWN0IGhlaWdodD0iMjMiIHdpZHRoPSI1NS4xMDE1NjI1IiB5PSItMSIgeD0iLTMiIHN0eWxlPSIiIGNsYXNzPSJiYWNrZ3JvdW5kIj48L3JlY3Q+PHRleHQgc3R5bGU9IiIgeT0iLTEwLjEiPjx0c3BhbiBkeT0iMS4xZW0iIHk9Ii0wLjFlbSIgeD0iMCIgY2xhc3M9InRleHQtb3V0ZXItdHNwYW4iPjx0c3BhbiBmb250LXdlaWdodD0ibm9ybWFsIiBjbGFzcz0idGV4dC1pbm5lci10c3BhbiIgZm9udC1zdHlsZT0ibm9ybWFsIj5UcmlnZ2VyPC90c3Bhbj48L3RzcGFuPjwvdGV4dD48L2c+PC9nPjwvZz48ZyBjbGFzcz0iZWRnZUxhYmVsIj48ZyB0cmFuc2Zvcm09InRyYW5zbGF0ZSgwLCAwKSIgY2xhc3M9ImxhYmVsIj48dGV4dCB5PSItMTAuMSI+PHRzcGFuIGR5PSIxLjFlbSIgeT0iLTAuMWVtIiB4PSIwIiBjbGFzcz0idGV4dC1vdXRlci10c3BhbiI+PC90c3Bhbj48L3RleHQ+PC9nPjwvZz48ZyBjbGFzcz0iZWRnZUxhYmVsIj48ZyB0cmFuc2Zvcm09InRyYW5zbGF0ZSgwLCAwKSIgY2xhc3M9ImxhYmVsIj48dGV4dCB5PSItMTAuMSI+PHRzcGFuIGR5PSIxLjFlbSIgeT0iLTAuMWVtIiB4PSIwIiBjbGFzcz0idGV4dC1vdXRlci10c3BhbiI+PC90c3Bhbj48L3RleHQ+PC9nPjwvZz48ZyBjbGFzcz0iZWRnZUxhYmVsIj48ZyB0cmFuc2Zvcm09InRyYW5zbGF0ZSgwLCAwKSIgY2xhc3M9ImxhYmVsIj48dGV4dCB5PSItMTAuMSI+PHRzcGFuIGR5PSIxLjFlbSIgeT0iLTAuMWVtIiB4PSIwIiBjbGFzcz0idGV4dC1vdXRlci10c3BhbiI+PC90c3Bhbj48L3RleHQ+PC9nPjwvZz48ZyBjbGFzcz0iZWRnZUxhYmVsIj48ZyB0cmFuc2Zvcm09InRyYW5zbGF0ZSgwLCAwKSIgY2xhc3M9ImxhYmVsIj48dGV4dCB5PSItMTAuMSI+PHRzcGFuIGR5PSIxLjFlbSIgeT0iLTAuMWVtIiB4PSIwIiBjbGFzcz0idGV4dC1vdXRlci10c3BhbiI+PC90c3Bhbj48L3RleHQ+PC9nPjwvZz48ZyBjbGFzcz0iZWRnZUxhYmVsIj48ZyB0cmFuc2Zvcm09InRyYW5zbGF0ZSgwLCAwKSIgY2xhc3M9ImxhYmVsIj48dGV4dCB5PSItMTAuMSI+PHRzcGFuIGR5PSIxLjFlbSIgeT0iLTAuMWVtIiB4PSIwIiBjbGFzcz0idGV4dC1vdXRlci10c3BhbiI+PC90c3Bhbj48L3RleHQ+PC9nPjwvZz48ZyBjbGFzcz0iZWRnZUxhYmVsIj48ZyB0cmFuc2Zvcm09InRyYW5zbGF0ZSgwLCAwKSIgY2xhc3M9ImxhYmVsIj48dGV4dCB5PSItMTAuMSI+PHRzcGFuIGR5PSIxLjFlbSIgeT0iLTAuMWVtIiB4PSIwIiBjbGFzcz0idGV4dC1vdXRlci10c3BhbiI+PC90c3Bhbj48L3RleHQ+PC9nPjwvZz48ZyBjbGFzcz0iZWRnZUxhYmVsIj48ZyB0cmFuc2Zvcm09InRyYW5zbGF0ZSgwLCAwKSIgY2xhc3M9ImxhYmVsIj48dGV4dCB5PSItMTAuMSI+PHRzcGFuIGR5PSIxLjFlbSIgeT0iLTAuMWVtIiB4PSIwIiBjbGFzcz0idGV4dC1vdXRlci10c3BhbiI+PC90c3Bhbj48L3RleHQ+PC9nPjwvZz48ZyBjbGFzcz0iZWRnZUxhYmVsIj48ZyB0cmFuc2Zvcm09InRyYW5zbGF0ZSgwLCAwKSIgY2xhc3M9ImxhYmVsIj48dGV4dCB5PSItMTAuMSI+PHRzcGFuIGR5PSIxLjFlbSIgeT0iLTAuMWVtIiB4PSIwIiBjbGFzcz0idGV4dC1vdXRlci10c3BhbiI+PC90c3Bhbj48L3RleHQ+PC9nPjwvZz48ZyBjbGFzcz0iZWRnZUxhYmVsIj48ZyB0cmFuc2Zvcm09InRyYW5zbGF0ZSgwLCAwKSIgY2xhc3M9ImxhYmVsIj48dGV4dCB5PSItMTAuMSI+PHRzcGFuIGR5PSIxLjFlbSIgeT0iLTAuMWVtIiB4PSIwIiBjbGFzcz0idGV4dC1vdXRlci10c3BhbiI+PC90c3Bhbj48L3RleHQ+PC9nPjwvZz48ZyBjbGFzcz0iZWRnZUxhYmVsIj48ZyB0cmFuc2Zvcm09InRyYW5zbGF0ZSgwLCAwKSIgY2xhc3M9ImxhYmVsIj48dGV4dCB5PSItMTAuMSI+PHRzcGFuIGR5PSIxLjFlbSIgeT0iLTAuMWVtIiB4PSIwIiBjbGFzcz0idGV4dC1vdXRlci10c3BhbiI+PC90c3Bhbj48L3RleHQ+PC9nPjwvZz48ZyBjbGFzcz0iZWRnZUxhYmVsIj48ZyB0cmFuc2Zvcm09InRyYW5zbGF0ZSgwLCAwKSIgY2xhc3M9ImxhYmVsIj48dGV4dCB5PSItMTAuMSI+PHRzcGFuIGR5PSIxLjFlbSIgeT0iLTAuMWVtIiB4PSIwIiBjbGFzcz0idGV4dC1vdXRlci10c3BhbiI+PC90c3Bhbj48L3RleHQ+PC9nPjwvZz48ZyBjbGFzcz0iZWRnZUxhYmVsIj48ZyB0cmFuc2Zvcm09InRyYW5zbGF0ZSgwLCAwKSIgY2xhc3M9ImxhYmVsIj48dGV4dCB5PSItMTAuMSI+PHRzcGFuIGR5PSIxLjFlbSIgeT0iLTAuMWVtIiB4PSIwIiBjbGFzcz0idGV4dC1vdXRlci10c3BhbiI+PC90c3Bhbj48L3RleHQ+PC9nPjwvZz48ZyBjbGFzcz0iZWRnZUxhYmVsIj48ZyB0cmFuc2Zvcm09InRyYW5zbGF0ZSgwLCAwKSIgY2xhc3M9ImxhYmVsIj48dGV4dCB5PSItMTAuMSI+PHRzcGFuIGR5PSIxLjFlbSIgeT0iLTAuMWVtIiB4PSIwIiBjbGFzcz0idGV4dC1vdXRlci10c3BhbiI+PC90c3Bhbj48L3RleHQ+PC9nPjwvZz48L2c+PGcgY2xhc3M9Im5vZGVzIj48ZyB0cmFuc2Zvcm09InRyYW5zbGF0ZSgyMTAuMDM5MDYyNSwgMzUpIiBpZD0iZmxvd2NoYXJ0LUEtMCIgY2xhc3M9Im5vZGUgZGVmYXVsdCI+PHJlY3QgaGVpZ2h0PSI1NCIgd2lkdGg9IjExMy4zNzUiIHk9Ii0yNyIgeD0iLTU2LjY4NzUiIHN0eWxlPSJmaWxsOiNGRkQ3MDAgIWltcG9ydGFudDtzdHJva2U6IzMzMyAhaW1wb3J0YW50IiBjbGFzcz0iYmFzaWMgbGFiZWwtY29udGFpbmVyIj48L3JlY3Q+PGcgdHJhbnNmb3JtPSJ0cmFuc2xhdGUoLTI2LjY4NzUsIC0xMikiIHN0eWxlPSIiIGNsYXNzPSJsYWJlbCI+PHJlY3Q+PC9yZWN0Pjxmb3JlaWduT2JqZWN0IGhlaWdodD0iMjQiIHdpZHRoPSI1My4zNzUiPjxkaXYgc3R5bGU9ImRpc3BsYXk6IHRhYmxlLWNlbGw7IHdoaXRlLXNwYWNlOiBub3dyYXA7IGxpbmUtaGVpZ2h0OiAxLjU7IG1heC13aWR0aDogMjAwcHg7IHRleHQtYWxpZ246IGNlbnRlcjsiIHhtbG5zPSJodHRwOi8vd3d3LnczLm9yZy8xOTk5L3hodG1sIj48c3BhbiBjbGFzcz0ibm9kZUxhYmVsIj48cD5Vc3VhcmlvPC9wPjwvc3Bhbj48L2Rpdj48L2ZvcmVpZ25PYmplY3Q+PC9nPjwvZz48ZyB0cmFuc2Zvcm09InRyYW5zbGF0ZSgyMTAuMDM5MDYyNSwgMTYyKSIgaWQ9ImZsb3djaGFydC1CLTEiIGNsYXNzPSJub2RlIGRlZmF1bHQiPjxyZWN0IGhlaWdodD0iNTQiIHdpZHRoPSIxMDkuODU5Mzc1IiB5PSItMjciIHg9Ii01NC45Mjk2ODc1IiBzdHlsZT0iZmlsbDojMjQyOTJFICFpbXBvcnRhbnQ7c3Ryb2tlOiMzMzMgIWltcG9ydGFudCIgY2xhc3M9ImJhc2ljIGxhYmVsLWNvbnRhaW5lciI+PC9yZWN0PjxnIHRyYW5zZm9ybT0idHJhbnNsYXRlKC0yNC45Mjk2ODc1LCAtMTIpIiBzdHlsZT0iY29sb3I6d2hpdGUgIWltcG9ydGFudCIgY2xhc3M9ImxhYmVsIj48cmVjdD48L3JlY3Q+PGZvcmVpZ25PYmplY3QgaGVpZ2h0PSIyNCIgd2lkdGg9IjQ5Ljg1OTM3NSI+PGRpdiB4bWxucz0iaHR0cDovL3d3dy53My5vcmcvMTk5OS94aHRtbCIgc3R5bGU9ImNvbG9yOiB3aGl0ZSAhaW1wb3J0YW50OyBkaXNwbGF5OiB0YWJsZS1jZWxsOyB3aGl0ZS1zcGFjZTogbm93cmFwOyBsaW5lLWhlaWdodDogMS41OyBtYXgtd2lkdGg6IDIwMHB4OyB0ZXh0LWFsaWduOiBjZW50ZXI7Ij48c3BhbiBjbGFzcz0ibm9kZUxhYmVsIiBzdHlsZT0iY29sb3I6d2hpdGUgIWltcG9ydGFudCI+PHA+R2l0SHViPC9wPjwvc3Bhbj48L2Rpdj48L2ZvcmVpZ25PYmplY3Q+PC9nPjwvZz48ZyB0cmFuc2Zvcm09InRyYW5zbGF0ZSgyMTAuMDM5MDYyNSwgMjg5KSIgaWQ9ImZsb3djaGFydC1DLTMiIGNsYXNzPSJub2RlIGRlZmF1bHQiPjxyZWN0IGhlaWdodD0iNTQiIHdpZHRoPSIxNjUuODU5Mzc1IiB5PSItMjciIHg9Ii04Mi45Mjk2ODc1IiBzdHlsZT0iIiBjbGFzcz0iYmFzaWMgbGFiZWwtY29udGFpbmVyIj48L3JlY3Q+PGcgdHJhbnNmb3JtPSJ0cmFuc2xhdGUoLTUyLjkyOTY4NzUsIC0xMikiIHN0eWxlPSIiIGNsYXNzPSJsYWJlbCI+PHJlY3Q+PC9yZWN0Pjxmb3JlaWduT2JqZWN0IGhlaWdodD0iMjQiIHdpZHRoPSIxMDUuODU5Mzc1Ij48ZGl2IHN0eWxlPSJkaXNwbGF5OiB0YWJsZS1jZWxsOyB3aGl0ZS1zcGFjZTogbm93cmFwOyBsaW5lLWhlaWdodDogMS41OyBtYXgtd2lkdGg6IDIwMHB4OyB0ZXh0LWFsaWduOiBjZW50ZXI7IiB4bWxucz0iaHR0cDovL3d3dy53My5vcmcvMTk5OS94aHRtbCI+PHNwYW4gY2xhc3M9Im5vZGVMYWJlbCI+PHA+R2l0SHViIEFjdGlvbnM8L3A+PC9zcGFuPjwvZGl2PjwvZm9yZWlnbk9iamVjdD48L2c+PC9nPjxnIHRyYW5zZm9ybT0idHJhbnNsYXRlKDIxMC4wMzkwNjI1LCA0MTgpIiBpZD0iZmxvd2NoYXJ0LUQtNSIgY2xhc3M9Im5vZGUgZGVmYXVsdCI+PHJlY3QgaGVpZ2h0PSI1NCIgd2lkdGg9IjIzNC41NDY4NzUiIHk9Ii0yNyIgeD0iLTExNy4yNzM0Mzc1IiBzdHlsZT0iZmlsbDojMDA3OEQ3ICFpbXBvcnRhbnQ7c3Ryb2tlOiMzMzMgIWltcG9ydGFudCIgY2xhc3M9ImJhc2ljIGxhYmVsLWNvbnRhaW5lciI+PC9yZWN0PjxnIHRyYW5zZm9ybT0idHJhbnNsYXRlKC04Ny4yNzM0Mzc1LCAtMTIpIiBzdHlsZT0iY29sb3I6d2hpdGUgIWltcG9ydGFudCIgY2xhc3M9ImxhYmVsIj48cmVjdD48L3JlY3Q+PGZvcmVpZ25PYmplY3QgaGVpZ2h0PSIyNCIgd2lkdGg9IjE3NC41NDY4NzUiPjxkaXYgeG1sbnM9Imh0dHA6Ly93d3cudzMub3JnLzE5OTkveGh0bWwiIHN0eWxlPSJjb2xvcjogd2hpdGUgIWltcG9ydGFudDsgZGlzcGxheTogdGFibGUtY2VsbDsgd2hpdGUtc3BhY2U6IG5vd3JhcDsgbGluZS1oZWlnaHQ6IDEuNTsgbWF4LXdpZHRoOiAyMDBweDsgdGV4dC1hbGlnbjogY2VudGVyOyI+PHNwYW4gY2xhc3M9Im5vZGVMYWJlbCIgc3R5bGU9ImNvbG9yOndoaXRlICFpbXBvcnRhbnQiPjxwPldpbmRvd3MgUnVubmVyIChDbG91ZCk8L3A+PC9zcGFuPjwvZGl2PjwvZm9yZWlnbk9iamVjdD48L2c+PC9nPjxnIHRyYW5zZm9ybT0idHJhbnNsYXRlKDIxMC4wMzkwNjI1LCA1MjIpIiBpZD0iZmxvd2NoYXJ0LUUtNyIgY2xhc3M9Im5vZGUgZGVmYXVsdCI+PHJlY3QgaGVpZ2h0PSI1NCIgd2lkdGg9IjIxNC4xNDA2MjUiIHk9Ii0yNyIgeD0iLTEwNy4wNzAzMTI1IiBzdHlsZT0iIiBjbGFzcz0iYmFzaWMgbGFiZWwtY29udGFpbmVyIj48L3JlY3Q+PGcgdHJhbnNmb3JtPSJ0cmFuc2xhdGUoLTc3LjA3MDMxMjUsIC0xMikiIHN0eWxlPSIiIGNsYXNzPSJsYWJlbCI+PHJlY3Q+PC9yZWN0Pjxmb3JlaWduT2JqZWN0IGhlaWdodD0iMjQiIHdpZHRoPSIxNTQuMTQwNjI1Ij48ZGl2IHN0eWxlPSJkaXNwbGF5OiB0YWJsZS1jZWxsOyB3aGl0ZS1zcGFjZTogbm93cmFwOyBsaW5lLWhlaWdodDogMS41OyBtYXgtd2lkdGg6IDIwMHB4OyB0ZXh0LWFsaWduOiBjZW50ZXI7IiB4bWxucz0iaHR0cDovL3d3dy53My5vcmcvMTk5OS94aHRtbCI+PHNwYW4gY2xhc3M9Im5vZGVMYWJlbCI+PHA+UGFzbyAxOiBDb25maWd1cmFjacOzbjwvcD48L3NwYW4+PC9kaXY+PC9mb3JlaWduT2JqZWN0PjwvZz48L2c+PGcgdHJhbnNmb3JtPSJ0cmFuc2xhdGUoMjEwLjAzOTA2MjUsIDYzOCkiIGlkPSJmbG93Y2hhcnQtRi05IiBjbGFzcz0ibm9kZSBkZWZhdWx0Ij48cmVjdCBoZWlnaHQ9Ijc4IiB3aWR0aD0iMjYwIiB5PSItMzkiIHg9Ii0xMzAiIHN0eWxlPSIiIGNsYXNzPSJiYXNpYyBsYWJlbC1jb250YWluZXIiPjwvcmVjdD48ZyB0cmFuc2Zvcm09InRyYW5zbGF0ZSgtMTAwLCAtMjQpIiBzdHlsZT0iIiBjbGFzcz0ibGFiZWwiPjxyZWN0PjwvcmVjdD48Zm9yZWlnbk9iamVjdCBoZWlnaHQ9IjQ4IiB3aWR0aD0iMjAwIj48ZGl2IHN0eWxlPSJkaXNwbGF5OiB0YWJsZTsgd2hpdGUtc3BhY2U6IGJyZWFrLXNwYWNlczsgbGluZS1oZWlnaHQ6IDEuNTsgbWF4LXdpZHRoOiAyMDBweDsgdGV4dC1hbGlnbjogY2VudGVyOyB3aWR0aDogMjAwcHg7IiB4bWxucz0iaHR0cDovL3d3dy53My5vcmcvMTk5OS94aHRtbCI+PHNwYW4gY2xhc3M9Im5vZGVMYWJlbCI+PHA+V2luZG93cyBTZXJ2ZXIgKEdpdEh1Yi1ob3N0ZWQpPC9wPjwvc3Bhbj48L2Rpdj48L2ZvcmVpZ25PYmplY3Q+PC9nPjwvZz48ZyB0cmFuc2Zvcm09InRyYW5zbGF0ZSgyMTAuMDM5MDYyNSwgNzU0KSIgaWQ9ImZsb3djaGFydC1HLTExIiBjbGFzcz0ibm9kZSBkZWZhdWx0Ij48cmVjdCBoZWlnaHQ9IjU0IiB3aWR0aD0iMjA4LjA3ODEyNSIgeT0iLTI3IiB4PSItMTA0LjAzOTA2MjUiIHN0eWxlPSIiIGNsYXNzPSJiYXNpYyBsYWJlbC1jb250YWluZXIiPjwvcmVjdD48ZyB0cmFuc2Zvcm09InRyYW5zbGF0ZSgtNzQuMDM5MDYyNSwgLTEyKSIgc3R5bGU9IiIgY2xhc3M9ImxhYmVsIj48cmVjdD48L3JlY3Q+PGZvcmVpZ25PYmplY3QgaGVpZ2h0PSIyNCIgd2lkdGg9IjE0OC4wNzgxMjUiPjxkaXYgc3R5bGU9ImRpc3BsYXk6IHRhYmxlLWNlbGw7IHdoaXRlLXNwYWNlOiBub3dyYXA7IGxpbmUtaGVpZ2h0OiAxLjU7IG1heC13aWR0aDogMjAwcHg7IHRleHQtYWxpZ246IGNlbnRlcjsiIHhtbG5zPSJodHRwOi8vd3d3LnczLm9yZy8xOTk5L3hodG1sIj48c3BhbiBjbGFzcz0ibm9kZUxhYmVsIj48cD5QeXRob24gMy45LjIgKENsb3VkKTwvcD48L3NwYW4+PC9kaXY+PC9mb3JlaWduT2JqZWN0PjwvZz48L2c+PGcgdHJhbnNmb3JtPSJ0cmFuc2xhdGUoMjEwLjAzOTA2MjUsIDg3MCkiIGlkPSJmbG93Y2hhcnQtSC0xMyIgY2xhc3M9Im5vZGUgZGVmYXVsdCI+PHJlY3QgaGVpZ2h0PSI3OCIgd2lkdGg9IjI2MCIgeT0iLTM5IiB4PSItMTMwIiBzdHlsZT0iIiBjbGFzcz0iYmFzaWMgbGFiZWwtY29udGFpbmVyIj48L3JlY3Q+PGcgdHJhbnNmb3JtPSJ0cmFuc2xhdGUoLTEwMCwgLTI0KSIgc3R5bGU9IiIgY2xhc3M9ImxhYmVsIj48cmVjdD48L3JlY3Q+PGZvcmVpZ25PYmplY3QgaGVpZ2h0PSI0OCIgd2lkdGg9IjIwMCI+PGRpdiBzdHlsZT0iZGlzcGxheTogdGFibGU7IHdoaXRlLXNwYWNlOiBicmVhay1zcGFjZXM7IGxpbmUtaGVpZ2h0OiAxLjU7IG1heC13aWR0aDogMjAwcHg7IHRleHQtYWxpZ246IGNlbnRlcjsgd2lkdGg6IDIwMHB4OyIgeG1sbnM9Imh0dHA6Ly93d3cudzMub3JnLzE5OTkveGh0bWwiPjxzcGFuIGNsYXNzPSJub2RlTGFiZWwiPjxwPlJlY3Vyc29zIGFzaWduYWRvczogMiBDUFUgLyA3IEdCIFJBTTwvcD48L3NwYW4+PC9kaXY+PC9mb3JlaWduT2JqZWN0PjwvZz48L2c+PGcgdHJhbnNmb3JtPSJ0cmFuc2xhdGUoMjEwLjAzOTA2MjUsIDk5OCkiIGlkPSJmbG93Y2hhcnQtSS0xNSIgY2xhc3M9Im5vZGUgZGVmYXVsdCI+PHJlY3QgaGVpZ2h0PSI3OCIgd2lkdGg9IjI2MCIgeT0iLTM5IiB4PSItMTMwIiBzdHlsZT0iIiBjbGFzcz0iYmFzaWMgbGFiZWwtY29udGFpbmVyIj48L3JlY3Q+PGcgdHJhbnNmb3JtPSJ0cmFuc2xhdGUoLTEwMCwgLTI0KSIgc3R5bGU9IiIgY2xhc3M9ImxhYmVsIj48cmVjdD48L3JlY3Q+PGZvcmVpZ25PYmplY3QgaGVpZ2h0PSI0OCIgd2lkdGg9IjIwMCI+PGRpdiBzdHlsZT0iZGlzcGxheTogdGFibGU7IHdoaXRlLXNwYWNlOiBicmVhay1zcGFjZXM7IGxpbmUtaGVpZ2h0OiAxLjU7IG1heC13aWR0aDogMjAwcHg7IHRleHQtYWxpZ246IGNlbnRlcjsgd2lkdGg6IDIwMHB4OyIgeG1sbnM9Imh0dHA6Ly93d3cudzMub3JnLzE5OTkveGh0bWwiPjxzcGFuIGNsYXNzPSJub2RlTGFiZWwiPjxwPkFsbWFjZW5hbWllbnRvIGVmw61tZXJvIChkaXNjbyBTU0QpPC9wPjwvc3Bhbj48L2Rpdj48L2ZvcmVpZ25PYmplY3Q+PC9nPjwvZz48ZyB0cmFuc2Zvcm09InRyYW5zbGF0ZSgyMTAuMDM5MDYyNSwgMTEzOSkiIGlkPSJmbG93Y2hhcnQtSi0xNyIgY2xhc3M9Im5vZGUgZGVmYXVsdCI+PHJlY3QgaGVpZ2h0PSI1NCIgd2lkdGg9IjE5MS41OTM3NSIgeT0iLTI3IiB4PSItOTUuNzk2ODc1IiBzdHlsZT0iIiBjbGFzcz0iYmFzaWMgbGFiZWwtY29udGFpbmVyIj48L3JlY3Q+PGcgdHJhbnNmb3JtPSJ0cmFuc2xhdGUoLTY1Ljc5Njg3NSwgLTEyKSIgc3R5bGU9IiIgY2xhc3M9ImxhYmVsIj48cmVjdD48L3JlY3Q+PGZvcmVpZ25PYmplY3QgaGVpZ2h0PSIyNCIgd2lkdGg9IjEzMS41OTM3NSI+PGRpdiBzdHlsZT0iZGlzcGxheTogdGFibGUtY2VsbDsgd2hpdGUtc3BhY2U6IG5vd3JhcDsgbGluZS1oZWlnaHQ6IDEuNTsgbWF4LXdpZHRoOiAyMDBweDsgdGV4dC1hbGlnbjogY2VudGVyOyIgeG1sbnM9Imh0dHA6Ly93d3cudzMub3JnLzE5OTkveGh0bWwiPjxzcGFuIGNsYXNzPSJub2RlTGFiZWwiPjxwPkVqZWN1Y2nDs24gUGlwZWxpbmU8L3A+PC9zcGFuPjwvZGl2PjwvZm9yZWlnbk9iamVjdD48L2c+PC9nPjxnIHRyYW5zZm9ybT0idHJhbnNsYXRlKDIxMC4wMzkwNjI1LCAxMjY4KSIgaWQ9ImZsb3djaGFydC1LLTE5IiBjbGFzcz0ibm9kZSBkZWZhdWx0Ij48cmVjdCBoZWlnaHQ9IjU0IiB3aWR0aD0iMTY3LjAxNTYyNSIgeT0iLTI3IiB4PSItODMuNTA3ODEyNSIgc3R5bGU9ImZpbGw6IzAwQUE1NSAhaW1wb3J0YW50O3N0cm9rZTojMzMzICFpbXBvcnRhbnQiIGNsYXNzPSJiYXNpYyBsYWJlbC1jb250YWluZXIiPjwvcmVjdD48ZyB0cmFuc2Zvcm09InRyYW5zbGF0ZSgtNTMuNTA3ODEyNSwgLTEyKSIgc3R5bGU9IiIgY2xhc3M9ImxhYmVsIj48cmVjdD48L3JlY3Q+PGZvcmVpZ25PYmplY3QgaGVpZ2h0PSIyNCIgd2lkdGg9IjEwNy4wMTU2MjUiPjxkaXYgc3R5bGU9ImRpc3BsYXk6IHRhYmxlLWNlbGw7IHdoaXRlLXNwYWNlOiBub3dyYXA7IGxpbmUtaGVpZ2h0OiAxLjU7IG1heC13aWR0aDogMjAwcHg7IHRleHQtYWxpZ246IGNlbnRlcjsiIHhtbG5zPSJodHRwOi8vd3d3LnczLm9yZy8xOTk5L3hodG1sIj48c3BhbiBjbGFzcz0ibm9kZUxhYmVsIj48cD5FVEwgZW4gbGEgTnViZTwvcD48L3NwYW4+PC9kaXY+PC9mb3JlaWduT2JqZWN0PjwvZz48L2c+PGcgdHJhbnNmb3JtPSJ0cmFuc2xhdGUoMjEwLjAzOTA2MjUsIDEzNzIpIiBpZD0iZmxvd2NoYXJ0LUwtMjEiIGNsYXNzPSJub2RlIGRlZmF1bHQiPjxyZWN0IGhlaWdodD0iNTQiIHdpZHRoPSIyNTEuMzQzNzUiIHk9Ii0yNyIgeD0iLTEyNS42NzE4NzUiIHN0eWxlPSIiIGNsYXNzPSJiYXNpYyBsYWJlbC1jb250YWluZXIiPjwvcmVjdD48ZyB0cmFuc2Zvcm09InRyYW5zbGF0ZSgtOTUuNjcxODc1LCAtMTIpIiBzdHlsZT0iIiBjbGFzcz0ibGFiZWwiPjxyZWN0PjwvcmVjdD48Zm9yZWlnbk9iamVjdCBoZWlnaHQ9IjI0IiB3aWR0aD0iMTkxLjM0Mzc1Ij48ZGl2IHN0eWxlPSJkaXNwbGF5OiB0YWJsZS1jZWxsOyB3aGl0ZS1zcGFjZTogbm93cmFwOyBsaW5lLWhlaWdodDogMS41OyBtYXgtd2lkdGg6IDIwMHB4OyB0ZXh0LWFsaWduOiBjZW50ZXI7IiB4bWxucz0iaHR0cDovL3d3dy53My5vcmcvMTk5OS94aHRtbCI+PHNwYW4gY2xhc3M9Im5vZGVMYWJlbCI+PHA+c2NyaXB0LnB5XG4oRXh0cmFjY2nDs24gQVBJKTwvcD48L3NwYW4+PC9kaXY+PC9mb3JlaWduT2JqZWN0PjwvZz48L2c+PGcgdHJhbnNmb3JtPSJ0cmFuc2xhdGUoMjEwLjAzOTA2MjUsIDE0NzYpIiBpZD0iZmxvd2NoYXJ0LU0tMjMiIGNsYXNzPSJub2RlIGRlZmF1bHQiPjxyZWN0IGhlaWdodD0iNTQiIHdpZHRoPSIyNDQuNSIgeT0iLTI3IiB4PSItMTIyLjI1IiBzdHlsZT0iIiBjbGFzcz0iYmFzaWMgbGFiZWwtY29udGFpbmVyIj48L3JlY3Q+PGcgdHJhbnNmb3JtPSJ0cmFuc2xhdGUoLTkyLjI1LCAtMTIpIiBzdHlsZT0iIiBjbGFzcz0ibGFiZWwiPjxyZWN0PjwvcmVjdD48Zm9yZWlnbk9iamVjdCBoZWlnaHQ9IjI0IiB3aWR0aD0iMTg0LjUiPjxkaXYgc3R5bGU9ImRpc3BsYXk6IHRhYmxlLWNlbGw7IHdoaXRlLXNwYWNlOiBub3dyYXA7IGxpbmUtaGVpZ2h0OiAxLjU7IG1heC13aWR0aDogMjAwcHg7IHRleHQtYWxpZ246IGNlbnRlcjsiIHhtbG5zPSJodHRwOi8vd3d3LnczLm9yZy8xOTk5L3hodG1sIj48c3BhbiBjbGFzcz0ibm9kZUxhYmVsIj48cD5jbGVhbkRhdGEucHlcbihMaW1waWV6YSk8L3A+PC9zcGFuPjwvZGl2PjwvZm9yZWlnbk9iamVjdD48L2c+PC9nPjxnIHRyYW5zZm9ybT0idHJhbnNsYXRlKDIxMC4wMzkwNjI1LCAxNTgwKSIgaWQ9ImZsb3djaGFydC1OLTI1IiBjbGFzcz0ibm9kZSBkZWZhdWx0Ij48cmVjdCBoZWlnaHQ9IjU0IiB3aWR0aD0iMzM0LjA3ODEyNSIgeT0iLTI3IiB4PSItMTY3LjAzOTA2MjUiIHN0eWxlPSIiIGNsYXNzPSJiYXNpYyBsYWJlbC1jb250YWluZXIiPjwvcmVjdD48ZyB0cmFuc2Zvcm09InRyYW5zbGF0ZSgtMTM3LjAzOTA2MjUsIC0xMikiIHN0eWxlPSIiIGNsYXNzPSJsYWJlbCI+PHJlY3Q+PC9yZWN0Pjxmb3JlaWduT2JqZWN0IGhlaWdodD0iMjQiIHdpZHRoPSIyNzQuMDc4MTI1Ij48ZGl2IHN0eWxlPSJkaXNwbGF5OiB0YWJsZTsgd2hpdGUtc3BhY2U6IGJyZWFrLXNwYWNlczsgbGluZS1oZWlnaHQ6IDEuNTsgbWF4LXdpZHRoOiAyMDBweDsgdGV4dC1hbGlnbjogY2VudGVyOyB3aWR0aDogMjAwcHg7IiB4bWxucz0iaHR0cDovL3d3dy53My5vcmcvMTk5OS94aHRtbCI+PHNwYW4gY2xhc3M9Im5vZGVMYWJlbCI+PHA+VHJhbnNmb3JtYXRpb24ucHlcbihFbnJpcXVlY2ltaWVudG8pPC9wPjwvc3Bhbj48L2Rpdj48L2ZvcmVpZ25PYmplY3Q+PC9nPjwvZz48ZyB0cmFuc2Zvcm09InRyYW5zbGF0ZSgyMTAuMDM5MDYyNSwgMTczMykiIGlkPSJmbG93Y2hhcnQtTy0yNyIgY2xhc3M9Im5vZGUgZGVmYXVsdCI+PHJlY3QgaGVpZ2h0PSIxMDIiIHdpZHRoPSIyNjAiIHk9Ii01MSIgeD0iLTEzMCIgc3R5bGU9IiIgY2xhc3M9ImJhc2ljIGxhYmVsLWNvbnRhaW5lciI+PC9yZWN0PjxnIHRyYW5zZm9ybT0idHJhbnNsYXRlKC0xMDAsIC0zNikiIHN0eWxlPSIiIGNsYXNzPSJsYWJlbCI+PHJlY3Q+PC9yZWN0Pjxmb3JlaWduT2JqZWN0IGhlaWdodD0iNzIiIHdpZHRoPSIyMDAiPjxkaXYgc3R5bGU9ImRpc3BsYXk6IHRhYmxlOyB3aGl0ZS1zcGFjZTogYnJlYWstc3BhY2VzOyBsaW5lLWhlaWdodDogMS41OyBtYXgtd2lkdGg6IDIwMHB4OyB0ZXh0LWFsaWduOiBjZW50ZXI7IHdpZHRoOiAyMDBweDsiIHhtbG5zPSJodHRwOi8vd3d3LnczLm9yZy8xOTk5L3hodG1sIj48c3BhbiBjbGFzcz0ibm9kZUxhYmVsIj48cD5SZXN1bHRhZG9zIGVuIEdpdEh1YlxuKEJEcyBTUUxpdGUsIHJlcG9ydGVzKTwvcD48L3NwYW4+PC9kaXY+PC9mb3JlaWduT2JqZWN0PjwvZz48L2c+PGcgdHJhbnNmb3JtPSJ0cmFuc2xhdGUoMjEwLjAzOTA2MjUsIDE4NzIuMDE5MjAzMTg2MDM1MikiIGlkPSJmbG93Y2hhcnQtUC0yOSIgY2xhc3M9Im5vZGUgZGVmYXVsdCI+PHBhdGggdHJhbnNmb3JtPSJ0cmFuc2xhdGUoLTYxLjAwNzgxMjUsIC0zOC4wMjM0Njc2NDUwMTIzMykiIHN0eWxlPSJmaWxsOiM2Q0M2NDQgIWltcG9ydGFudDtzdHJva2U6IzMzMyAhaW1wb3J0YW50IiBjbGFzcz0iYmFzaWMgbGFiZWwtY29udGFpbmVyIiBkPSJNMCwxMi4zNDg5Nzg0MzAwMDgyMjMgYTYxLjAwNzgxMjUsMTIuMzQ4OTc4NDMwMDA4MjIzIDAsMCwwIDEyMi4wMTU2MjUsMCBhNjEuMDA3ODEyNSwxMi4zNDg5Nzg0MzAwMDgyMjMgMCwwLDAgLTEyMi4wMTU2MjUsMCBsMCw1MS4zNDg5Nzg0MzAwMDgyMiBhNjEuMDA3ODEyNSwxMi4zNDg5Nzg0MzAwMDgyMjMgMCwwLDAgMTIyLjAxNTYyNSwwIGwwLC01MS4zNDg5Nzg0MzAwMDgyMiI+PC9wYXRoPjxnIHRyYW5zZm9ybT0idHJhbnNsYXRlKC01My41MDc4MTI1LCAtMikiIHN0eWxlPSIiIGNsYXNzPSJsYWJlbCI+PHJlY3Q+PC9yZWN0Pjxmb3JlaWduT2JqZWN0IGhlaWdodD0iMjQiIHdpZHRoPSIxMDcuMDE1NjI1Ij48ZGl2IHN0eWxlPSJkaXNwbGF5OiB0YWJsZS1jZWxsOyB3aGl0ZS1zcGFjZTogbm93cmFwOyBsaW5lLWhlaWdodDogMS41OyBtYXgtd2lkdGg6IDIwMHB4OyB0ZXh0LWFsaWduOiBjZW50ZXI7IiB4bWxucz0iaHR0cDovL3d3dy53My5vcmcvMTk5OS94aHRtbCI+PHNwYW4gY2xhc3M9Im5vZGVMYWJlbCI+PHA+8J+TgiBSZXBvc2l0b3JpbzwvcD48L3NwYW4+PC9kaXY+PC9mb3JlaWduT2JqZWN0PjwvZz48L2c+PC9nPjwvZz48L2c+PC9zdmc+;" vertex="1" parent="1">
                        <mxGeometry x="200" y="-710" width="420.078125" height="1918.0384521484375" as="geometry"/>
                    </mxCell>
                </UserObject>
            </root>
        </mxGraphModel>
    </diagram>
</mxfile>